<svg xmlns="http://www.w3.org/2000/svg" width="46.896" height="43.585" viewBox="0 0 46.896 43.585">
  <g id="cat" transform="translate(0.189 0)">
    <g id="bird" transform="translate(-4.937 -8.936)">
      <path id="Path_30" data-name="Path 30" d="M51.639,18.492c-.253-1.951-2.686-3.087-5.071-3.552V14.7a5.773,5.773,0,0,0-11.022-2.4,62.8,62.8,0,0,1-6.673,11c-.04.009-.075.015-.113.025a8.816,8.816,0,0,0-5.36,4.579c-.232.418-.524,1.025-.892,1.8-.354.738-.779,1.627-1.286,2.626A127.658,127.658,0,0,1,5.029,46.467a.693.693,0,0,0,.412,1.249c1.675,0,3.159-.014,4.5-.042-.2.184-.408.367-.616.548a.692.692,0,0,0,.422,1.215q.421.02.853.019a38.665,38.665,0,0,0,12.509-2.626l.613,4.306h-.983a.693.693,0,1,0,0,1.385H26.3a.693.693,0,0,0,0-1.385h-1.18l-.684-4.806c1.449-.565,2.849-1.172,4.162-1.8l.941,6.6h-.983a.693.693,0,1,0,0,1.385h3.562a.693.693,0,0,0,0-1.385h-1.18l-.982-6.886a17.006,17.006,0,0,0,11.36-4.807c3.437-3.43,5.255-8.4,5.255-14.381V19.329a27.1,27.1,0,0,1,4.323-.059.681.681,0,0,0,.561-.211.691.691,0,0,0,.187-.568ZM18.82,36.676a50.075,50.075,0,0,1-7.386,9.573c-1.168.04-2.456.063-3.909.074A131.682,131.682,0,0,0,18.82,36.676ZM23.756,30.3c.359-.749.641-1.34.854-1.721a7.5,7.5,0,0,1,4.5-3.912,6.49,6.49,0,0,1,1.7-.219,9.088,9.088,0,0,1,4.13,1.085,7.191,7.191,0,0,1,3.545,5.719,9.486,9.486,0,0,1-3.288,7.754c-3.688,3.1-15.212,8.62-23.618,9.037C18.313,41.665,21.951,34.07,23.756,30.3ZM45.182,25.06c0,5.6-1.676,10.236-4.848,13.4a15.189,15.189,0,0,1-7.971,4.109,26.769,26.769,0,0,0,3.72-2.5,10.913,10.913,0,0,0,3.778-8.921,8.542,8.542,0,0,0-4.211-6.8l0,0a10.294,10.294,0,0,0-4.886-1.281A62.686,62.686,0,0,0,36.8,12.883a4.387,4.387,0,0,1,8.378,1.82Zm1.385-7.12V16.357a6.66,6.66,0,0,1,3.241,1.478,30.064,30.064,0,0,0-3.241.1Z" transform="translate(0 0)" fill="#ffffff"/>
      <path id="Path_31" data-name="Path 31" d="M73.8,80.083a19.474,19.474,0,0,1-2.3,1.6.693.693,0,0,0,.721,1.183A20.646,20.646,0,0,0,74.7,81.144a.693.693,0,0,0-.891-1.061Z" transform="translate(-40.138 -42.893)" fill="#ffffff"/>
      <path id="Path_32" data-name="Path 32" d="M90.463,20.015a1.88,1.88,0,1,0,1.88,1.88A1.88,1.88,0,0,0,90.463,20.015Zm0,2.374a.495.495,0,1,1,.495-.495A.495.495,0,0,1,90.463,22.389Z" transform="translate(-50.658 -6.695)" fill="#ffffff"/>
    </g>
  </g>
</svg>
