<svg xmlns="http://www.w3.org/2000/svg" width="40.03" height="44.471" viewBox="0 0 40.03 44.471">
  <g id="cat" transform="translate(-0.039 0)">
    <path id="Path_23" data-name="Path 23" d="M171.51,354.949a.741.741,0,0,0-.741.741v.741a2.952,2.952,0,0,0,5.188,1.94,2.952,2.952,0,0,0,5.187-1.94v-.741a.741.741,0,1,0-1.482,0v.741a1.482,1.482,0,0,1-2.964,0v-2.362a1.836,1.836,0,0,0,.689-.451l1.109-1.186a1.485,1.485,0,0,0,.3-1.624,1.847,1.847,0,0,0-1.731-1.047h-2.222a1.847,1.847,0,0,0-1.73,1.047,1.486,1.486,0,0,0,.3,1.624l1.111,1.186a1.832,1.832,0,0,0,.688.451v2.362a1.482,1.482,0,0,1-2.964,0v-.741A.741.741,0,0,0,171.51,354.949Zm2.964-3.548c.009-.035.12-.158.372-.158h2.222c.253,0,.363.123.347.175l-1.109,1.186a.594.594,0,0,1-.7,0Zm0,0" transform="translate(-155.904 -319.385)" fill="#ffffff"/>
    <path id="Path_24" data-name="Path 24" d="M112.042,300.485a3.8,3.8,0,0,1,3.122-.178,2.3,2.3,0,0,1,1.072,1.385.741.741,0,0,0,1.448-.314,3.789,3.789,0,0,0-1.8-2.368,5.145,5.145,0,0,0-4.379.095.741.741,0,1,0,.54,1.381Zm0,0" transform="translate(-101.352 -272.638)" fill="#ffffff"/>
    <path id="Path_25" data-name="Path 25" d="M265.224,302.247a.741.741,0,0,0,.879-.571,2.284,2.284,0,0,1,1.056-1.372,3.781,3.781,0,0,1,3.137.17.741.741,0,1,0,.54-1.381,5.144,5.144,0,0,0-4.379-.1,3.79,3.79,0,0,0-1.8,2.368.74.74,0,0,0,.57.88Zm0,0" transform="translate(-241.62 -272.628)" fill="#ffffff"/>
    <path id="Path_26" data-name="Path 26" d="M.785,28.894A16.446,16.446,0,0,1,2.8,29.02,12.7,12.7,0,0,0,2.267,32.6v.006a7.515,7.515,0,0,0-1.893.859A.741.741,0,1,0,1.2,34.7a5.538,5.538,0,0,1,1.191-.574,9.537,9.537,0,0,0,.766,2.6A5.274,5.274,0,0,0,.785,40.751c0,2.285,2.272,3.705,5.929,3.705a7.7,7.7,0,0,0,4.673-1.231,29.037,29.037,0,0,0,8.667,1.231,29.034,29.034,0,0,0,8.666-1.231,7.7,7.7,0,0,0,4.673,1.231c3.657,0,5.929-1.42,5.929-3.705a5.273,5.273,0,0,0-2.368-4.023,9.537,9.537,0,0,0,.766-2.6,5.548,5.548,0,0,1,1.191.574.741.741,0,1,0,.822-1.233,7.515,7.515,0,0,0-1.893-.859V32.6A12.678,12.678,0,0,0,37.3,29.02a16.513,16.513,0,0,1,2.018-.127.741.741,0,1,0,0-1.482,18.114,18.114,0,0,0-2.528.178,16.441,16.441,0,0,0-1.1-2.211c.487-1.583,2.4-8.241.751-10.511a1.842,1.842,0,0,0-1.545-.8,7.791,7.791,0,0,0-3.147.934A13.648,13.648,0,0,0,22.7,9.838a13.391,13.391,0,0,0-.378-3,2.252,2.252,0,0,1,.791-2.2c.924-.623,2.434.341,3.04.784a2.223,2.223,0,1,0,2.624-3.59C24.709-1.138,21.729.222,20.632.948a6.672,6.672,0,0,0-2.625,6.941,9.042,9.042,0,0,1,.254,1.834A13.877,13.877,0,0,0,8.359,15a7.772,7.772,0,0,0-3.127-.928,1.848,1.848,0,0,0-1.548.8c-1.64,2.261.261,8.9.747,10.48a16.524,16.524,0,0,0-1.118,2.241,18.15,18.15,0,0,0-2.527-.178.741.741,0,1,0,0,1.482ZM2.267,40.751c0-1.668,2.052-3.705,4.446-3.705s4.446,2.037,4.446,3.705c0,1.079-1,1.7-2.29,2a2.2,2.2,0,0,0,.066-.515V40.751a.741.741,0,1,0-1.482,0v1.482a.741.741,0,0,1-1.482,0V40.751a.741.741,0,1,0-1.482,0v1.482a2.2,2.2,0,0,0,.066.515c-1.293-.3-2.29-.919-2.29-2Zm35.572,0c0,1.079-1,1.7-2.289,2a2.219,2.219,0,0,0,.066-.515V40.751a.741.741,0,1,0-1.482,0v1.482a.741.741,0,0,1-1.482,0V40.751a.741.741,0,1,0-1.482,0v1.482a2.2,2.2,0,0,0,.066.515c-1.293-.3-2.29-.919-2.29-2,0-1.668,2.052-3.705,4.446-3.705s4.446,2.038,4.446,3.705ZM19.446,7.537a5.144,5.144,0,0,1,2.009-5.356C22.491,1.5,24.7.7,27.9,3.036a.741.741,0,0,1-.875,1.2C25.186,2.887,23.5,2.6,22.288,3.414a3.724,3.724,0,0,0-1.406,3.779A11.946,11.946,0,0,1,21.22,9.67c-.386-.026-.774-.045-1.166-.045-.105,0-.209.007-.314.009a10.5,10.5,0,0,0-.293-2.1Zm.607,3.571c4.32,0,8.293,1.784,10.376,4.6-.993.562-2.089,1.258-3.3,2.109A17.281,17.281,0,0,0,13,17.809c-1.22-.851-2.32-1.547-3.315-2.109,2.077-2.811,6.049-4.592,10.373-4.592ZM5.943,25.218c-1.358-4.159-1.834-8.411-1.06-9.479a.38.38,0,0,1,.348-.185,7.176,7.176,0,0,1,2.98,1.028c.006,0,.009.011.016.015a.744.744,0,0,0,.074.032,38.041,38.041,0,0,1,4.186,2.636.739.739,0,0,0,.744.065,15.826,15.826,0,0,1,13.655.006.739.739,0,0,0,.748-.065c3.319-2.362,5.967-3.716,7.262-3.716a.377.377,0,0,1,.344.183c.778,1.073.3,5.339-1.064,9.51a.74.74,0,0,0,.076.624,15.3,15.3,0,0,1,1.048,2,13.094,13.094,0,0,0-4.577,1.917.741.741,0,0,0,.887,1.187,12.2,12.2,0,0,1,4.219-1.7,11.429,11.429,0,0,1,.511,2.959,21.556,21.556,0,0,0-3.69-.371.741.741,0,1,0,0,1.482,20.662,20.662,0,0,1,3.635.388,8.138,8.138,0,0,1-.631,2.282,6,6,0,0,0-2.262-.447c-3.339,0-5.929,2.789-5.929,5.188a3.016,3.016,0,0,0,.255,1.233,28.193,28.193,0,0,1-7.666.99,28.2,28.2,0,0,1-7.666-.99,3.016,3.016,0,0,0,.255-1.233c0-2.4-2.589-5.188-5.929-5.188a6,6,0,0,0-2.262.447,8.138,8.138,0,0,1-.631-2.282,20.666,20.666,0,0,1,3.635-.388.741.741,0,0,0,0-1.482,21.553,21.553,0,0,0-3.69.371,11.414,11.414,0,0,1,.51-2.959,12.188,12.188,0,0,1,4.219,1.7.741.741,0,0,0,.887-1.187A13.091,13.091,0,0,0,4.8,27.866a15.284,15.284,0,0,1,1.064-2.025.74.74,0,0,0,.076-.623Zm0,0" transform="translate(0 0)" fill="#ffffff"/>
  </g>
</svg>
