<svg xmlns="http://www.w3.org/2000/svg" width="34.119" height="39.368" viewBox="0 0 34.119 39.368">
  <g id="dog_1_" data-name="dog (1)" transform="translate(-34.133)">
    <g id="Group_46" data-name="Group 46" transform="translate(34.133)">
      <g id="Group_45" data-name="Group 45" transform="translate(0)">
        <path id="Path_33" data-name="Path 33" d="M67.483,228.356a.656.656,0,0,0,.59-1.173,6.451,6.451,0,0,1-2.93-4.772.656.656,0,0,0-1.257-.136c-1.424,3.561,1.261,7.653,1.376,7.826a.656.656,0,0,0,1.092-.728,11.066,11.066,0,0,1-1.47-3.724A6.826,6.826,0,0,0,67.483,228.356Z" transform="translate(-61.215 -204.804)" fill="#ffffff"/>
        <path id="Path_34" data-name="Path 34" d="M90.711,308.5a.656.656,0,1,0-.257-1.286,5.06,5.06,0,0,0-3.808,5.236,13.838,13.838,0,0,0,.953,5.34,2.49,2.49,0,0,0-2.266,2.533c0,1.521,1.38,2.624,3.281,2.624h.656a2.459,2.459,0,0,0,1.829-.908.656.656,0,0,0-1.034-.808,1.165,1.165,0,0,1-.8.4h-.656c-.978,0-1.968-.451-1.968-1.312,0-.325,0-1.312,1.968-1.312A.657.657,0,0,0,89.162,318a10.9,10.9,0,0,1-1.2-5.544A3.746,3.746,0,0,1,90.711,308.5Z" transform="translate(-81.396 -283.581)" fill="#ffffff"/>
        <path id="Path_35" data-name="Path 35" d="M353.5,317.794a13.838,13.838,0,0,0,.953-5.34,5.06,5.06,0,0,0-3.808-5.236.656.656,0,1,0-.257,1.286,3.706,3.706,0,0,1,2.753,3.95,10.9,10.9,0,0,1-1.2,5.541.656.656,0,0,0,.546,1.02c1.968,0,1.968.987,1.968,1.312,0,.861-.99,1.312-1.968,1.312h-.656a1.174,1.174,0,0,1-.8-.409.656.656,0,0,0-1.03.813,2.459,2.459,0,0,0,1.829.908h.656c1.9,0,3.281-1.1,3.281-2.625A2.49,2.49,0,0,0,353.5,317.794Z" transform="translate(-325.586 -283.584)" fill="#ffffff"/>
        <path id="Path_36" data-name="Path 36" d="M181.277,349.257l1.193-7.159a.656.656,0,0,0-1.294-.217l-1.221,7.326h-.1a.656.656,0,0,0,0,1.312h.656c1.968,0,1.968.987,1.968,1.312,0,.862-.99,1.312-1.968,1.312h-.656a1.971,1.971,0,0,1-1.968-1.968V341.99a.656.656,0,0,0-1.312,0v9.186a1.971,1.971,0,0,1-1.968,1.968h-.656c-.978,0-1.968-.451-1.968-1.312,0-.325,0-1.312,1.968-1.312h.656a.656.656,0,0,0,0-1.312h-.1l-1.221-7.326a.656.656,0,0,0-1.294.217l1.193,7.159a2.547,2.547,0,0,0-2.514,2.575c0,1.521,1.38,2.624,3.281,2.624h.656a3.278,3.278,0,0,0,2.624-1.314,3.278,3.278,0,0,0,2.624,1.314h.656c1.9,0,3.281-1.1,3.281-2.624A2.547,2.547,0,0,0,181.277,349.257Z" transform="translate(-160.171 -315.089)" fill="#ffffff"/>
        <path id="Path_37" data-name="Path 37" d="M67.526,5.612C66.084,2.727,62.61,0,60.378,0c-1.267,0-3.447,1.964-4.542,3.035a7.119,7.119,0,0,0-9.287,0C45.454,1.964,43.274,0,42.007,0,39.775,0,36.3,2.727,34.859,5.612a7.182,7.182,0,0,0-.726,2.918,3.284,3.284,0,0,0,3.281,3.281,3.421,3.421,0,0,0,2.945-1.934c.072-.1.142-.209.225-.327l2.624-3.937a.656.656,0,1,0-1.092-.728L39.5,8.807c-.077.11-.153.22-.228.331-.59.869-.968,1.36-1.86,1.36A1.971,1.971,0,0,1,35.445,8.53,5.842,5.842,0,0,1,36.032,6.2c1.293-2.586,4.418-4.886,5.974-4.886.56,0,2.226,1.3,3.615,2.653C43.156,6.832,42.007,11.63,42.007,16.4c0,6.058,2.661,8.53,9.186,8.53s9.186-2.472,9.186-8.53c0-4.774-1.15-9.572-3.615-12.438,1.389-1.35,3.054-2.653,3.615-2.653,1.556,0,4.681,2.3,5.975,4.886A5.851,5.851,0,0,1,66.94,8.53,1.971,1.971,0,0,1,64.971,10.5c-.924,0-1.289-.486-1.9-1.415l-2.8-4.2a.656.656,0,0,0-1.092.728l2.8,4.194c.622.939,1.326,2,3,2A3.284,3.284,0,0,0,68.252,8.53,7.182,7.182,0,0,0,67.526,5.612ZM59.066,16.4c0,5.329-2.061,7.217-7.874,7.217s-7.874-1.888-7.874-7.217c0-6.859,2.435-13.779,7.874-13.779S59.066,9.545,59.066,16.4Z" transform="translate(-34.133)" fill="#ffffff"/>
        <path id="Path_38" data-name="Path 38" d="M204.209,192.682c-.112.219-.55.3-.729.3a2.187,2.187,0,0,1-1.849-1.406,2.1,2.1,0,0,0,1.849-1.875c0-1.1-1.153-1.968-2.624-1.968s-2.625.865-2.625,1.968a2.1,2.1,0,0,0,1.849,1.875,2.185,2.185,0,0,1-1.844,1.406c-.188,0-.617-.082-.737-.308a.656.656,0,0,0-1.159.615,2.21,2.21,0,0,0,1.892,1,3.386,3.386,0,0,0,2.625-1.415,3.386,3.386,0,0,0,2.624,1.415,2.2,2.2,0,0,0,1.9-1.012.656.656,0,0,0-1.167-.6Zm-3.353-2.324c-.789,0-1.312-.395-1.312-.656s.524-.656,1.312-.656,1.312.388,1.312.656S201.657,190.358,200.856,190.358Z" transform="translate(-183.796 -173.298)" fill="#ffffff"/>
        <path id="Path_39" data-name="Path 39" d="M282.584,129.968a.984.984,0,1,0-.984-.984A.985.985,0,0,0,282.584,129.968Z" transform="translate(-262.572 -118.158)" fill="#ffffff"/>
        <path id="Path_40" data-name="Path 40" d="M205.784,129.968a.984.984,0,1,0-.984-.984A.985.985,0,0,0,205.784,129.968Z" transform="translate(-191.677 -118.158)" fill="#ffffff"/>
      </g>
    </g>
  </g>
</svg>
