<svg xmlns="http://www.w3.org/2000/svg" width="512" height="512" enable-background="new 0 0 512 512" viewBox="0 0 512 512" id="hamster"><path d="M402.812,351.375l-0.052-0.404l-24.39-90.902c-5.617-20.938-6.21-43.215-1.713-64.421l0.052-0.275
		c0.278-1.695,0.557-3.352,0.92-4.97c1.884-8.406,1.419-18.71-0.997-29.397l12.323-12.323c15.054-15.053,15.054-39.546,0-54.599
		c-15.053-15.055-39.545-15.055-54.598,0l-1.561,1.561C311.623,80.391,285.085,72.054,256,72.054
		c-28.676,0-54.875,8.104-75.898,22.948l-0.92-0.92c-15.051-15.053-39.545-15.053-54.6,0c-15.052,15.053-15.052,39.546,0.001,54.599
		l11.069,11.07c-2.668,11.124-3.25,21.897-1.298,30.621c0.354,1.58,0.633,3.239,0.911,4.942l0.105,0.531
		c4.467,21.171,3.862,43.406-1.748,64.302l-24.383,90.822l-0.052,0.404c-2.989,23.459,4.005,46.803,19.192,64.049
		c13.047,14.814,30.434,23.393,49.302,24.416v0.098h3.506c0.109,0,0.218,0.008,0.328,0.008h148.966c0.109,0,0.218-0.008,0.328-0.008
		h1.999v-0.055c19.447-0.639,37.417-9.252,50.81-24.461C398.806,398.178,405.801,374.832,402.812,351.375z M342.842,102.567
		c10.375-10.373,27.254-10.373,37.629,0c10.374,10.375,10.374,27.255-0.001,37.63l-7.717,7.717
		c-3.002-8.191-7.045-16.249-11.966-23.502c-5.355-7.894-11.599-14.978-18.581-21.209L342.842,102.567z M133.068,140.197
		c-10.374-10.375-10.374-27.255-0.001-37.629c5.188-5.188,12.001-7.781,18.815-7.781c6.771,0,13.544,2.566,18.719,7.689
		c-7.317,6.407-13.836,13.745-19.401,21.951c-4.692,6.918-8.585,14.566-11.539,22.362L133.068,140.197z M374.614,407.492
		c-11.541,13.104-27.088,20.352-43.807,20.445h-25.629c-6.34,0-11.497-5.158-11.497-11.498s5.157-11.496,11.497-11.496h27.631v-12
		h-27.631c-12.956,0-23.497,10.541-23.497,23.496c0,4.178,1.102,8.104,3.021,11.506h-58.915c1.92-3.402,3.021-7.328,3.021-11.506
		c0-12.955-10.54-23.496-23.496-23.496h-27.632v12h27.632c6.339,0,11.496,5.156,11.496,11.496s-5.157,11.498-11.496,11.498H181.19
		c-16.719-0.094-32.265-7.342-43.805-20.445c-12.823-14.563-18.769-34.299-16.343-54.205l1.401-5.221
		c3.616,8.332,11.919,14.176,21.563,14.176c12.956,0,23.497-10.541,23.497-23.496v-27.633h-12v27.633
		c0,6.338-5.157,11.496-11.497,11.496s-11.497-5.158-11.497-11.496v-27.633h-0.146l12.848-47.854
		c6.098-22.712,6.754-46.879,1.901-69.883l-0.027-0.129c-0.301-1.84-0.607-3.646-1.021-5.495
		c-1.054-4.709-1.146-10.862-0.169-17.757c0.761-5.378,2.172-11.206,4.29-17.162c2.575-7.237,6.188-14.657,10.945-21.67
		c5.131-7.565,11.176-14.313,17.986-20.176c3.056-2.631,6.271-5.078,9.623-7.346c18.743-12.68,41.911-19.588,67.259-19.588
		c25.76,0,49.27,7.137,68.171,20.214c3.323,2.3,6.505,4.78,9.529,7.44c6.471,5.691,12.236,12.188,17.157,19.44
		c4.224,6.226,7.546,12.773,10.041,19.231c2.824,7.311,4.586,14.504,5.379,20.979c0.779,6.352,0.629,12.013-0.357,16.417
		c-0.422,1.882-0.741,3.756-1.03,5.519c-1.104,5.229-1.908,10.52-2.443,15.837c-57.91-2.209-104.342-50-104.342-108.44v-6h-12v6
		c0,28.534,9.974,54.779,26.609,75.447h-34.277l-4.995,9.324l15.075,22.655c-3.267,3.554-7.288,5.509-11.474,5.509
		c-4.624,0-9.058-2.365-12.483-6.661l-3.74-4.69l-9.382,7.481l3.741,4.691c5.624,7.053,13.18,10.994,21.323,11.162v14.581h38.995
		v-14.61c0.513,0.03,1.028,0.046,1.546,0.046c8.351,0,16.115-3.97,21.864-11.179l3.741-4.691l-9.382-7.481l-3.74,4.69
		c-3.426,4.296-7.859,6.661-12.483,6.661s-9.058-2.365-12.483-6.661l-0.17-0.213l14.167-21.29l-3.45-6.439
		c21.127,24.65,52.016,40.694,86.614,42.089c-0.294,14.168,1.388,28.38,5.06,42.065l12.861,47.936h-0.152v27.633
		c0,6.338-5.158,11.496-11.498,11.496s-11.497-5.158-11.497-11.496v-27.633h-12v27.633c0,12.955,10.542,23.496,23.497,23.496
		c9.646,0,17.949-5.844,21.564-14.176l1.401,5.221C393.383,373.193,387.438,392.93,374.614,407.492z M257.043,216.585
		c1.976,2.095,4.141,3.851,6.454,5.238v6.368h-14.995v-5.237C251.604,221.44,254.484,219.299,257.043,216.585z M249.636,188.139
		h12.726L256,197.702L249.636,188.139z"></path><rect width="12" height="13.987" x="210" y="158.1"></rect><rect width="12" height="13.987" x="289.999" y="158.1"></rect></svg>