<svg xmlns="http://www.w3.org/2000/svg" width="19.386" height="19.387" viewBox="0 0 19.386 19.387">
  <path id="home" d="M15.554,19.386H12.323a.606.606,0,0,1-.606-.606V13.53a.2.2,0,0,0-.2-.2H7.88a.2.2,0,0,0-.2.2v5.251a.606.606,0,0,1-.606.606H3.841a1.415,1.415,0,0,1-1.414-1.414V10.5H1.014A1.011,1.011,0,0,1,0,9.491a1.024,1.024,0,0,1,.3-.719L9.278.168a.606.606,0,0,1,.838,0l8.966,8.595a1.035,1.035,0,0,1,.308.729,1.011,1.011,0,0,1-1.01,1.01H16.967v7.472a1.415,1.415,0,0,1-1.414,1.414Zm-2.625-1.212h2.625a.2.2,0,0,0,.2-.2V9.9a.606.606,0,0,1,.606-.606h1.519L9.7,1.445,1.514,9.289H3.033a.606.606,0,0,1,.606.606v8.078a.2.2,0,0,0,.2.2H6.466V13.53A1.415,1.415,0,0,1,7.88,12.117h3.635a1.415,1.415,0,0,1,1.414,1.414Zm0,0" transform="translate(-0.004 0)" fill="#989898"/>
</svg>
