<svg xmlns="http://www.w3.org/2000/svg" width="23.5" height="23.5" viewBox="0 0 23.5 23.5">
  <g id="settings" transform="translate(0 0)">
    <path id="Path_57" data-name="Path 57" d="M12.487,23.5H11.013a2.166,2.166,0,0,1-2.163-2.163v-.5a9.487,9.487,0,0,1-1.473-.612l-.354.354a2.163,2.163,0,0,1-3.06,0L2.92,19.537a2.163,2.163,0,0,1,0-3.06l.353-.353a9.488,9.488,0,0,1-.612-1.473h-.5A2.166,2.166,0,0,1,0,12.487V11.013A2.166,2.166,0,0,1,2.163,8.849h.5a9.49,9.49,0,0,1,.612-1.473L2.92,7.022a2.163,2.163,0,0,1,0-3.06L3.963,2.92a2.163,2.163,0,0,1,3.06,0l.353.353a9.5,9.5,0,0,1,1.473-.612v-.5A2.166,2.166,0,0,1,11.013,0h1.475a2.166,2.166,0,0,1,2.163,2.163v.5a9.487,9.487,0,0,1,1.473.612l.354-.354a2.163,2.163,0,0,1,3.06,0L20.58,3.963a2.163,2.163,0,0,1,0,3.06l-.353.353a9.488,9.488,0,0,1,.612,1.473h.5A2.166,2.166,0,0,1,23.5,11.013v1.475a2.166,2.166,0,0,1-2.163,2.163h-.5a9.489,9.489,0,0,1-.612,1.473l.354.354a2.163,2.163,0,0,1,0,3.06L19.537,20.58a2.163,2.163,0,0,1-3.06,0l-.353-.353a9.5,9.5,0,0,1-1.473.612v.5A2.166,2.166,0,0,1,12.487,23.5ZM7.606,18.78a8.115,8.115,0,0,0,2.1.873.688.688,0,0,1,.516.667v1.017a.787.787,0,0,0,.786.786h1.475a.787.787,0,0,0,.786-.786V20.32a.688.688,0,0,1,.516-.667,8.115,8.115,0,0,0,2.1-.873.688.688,0,0,1,.837.106l.72.72a.786.786,0,0,0,1.112,0l1.043-1.043a.786.786,0,0,0,0-1.112l-.72-.72a.689.689,0,0,1-.106-.837,8.114,8.114,0,0,0,.873-2.1.688.688,0,0,1,.667-.516h1.017a.787.787,0,0,0,.786-.786V11.013a.787.787,0,0,0-.786-.786H20.32a.688.688,0,0,1-.667-.516,8.116,8.116,0,0,0-.873-2.1.689.689,0,0,1,.106-.837l.72-.72a.786.786,0,0,0,0-1.112L18.564,3.894a.786.786,0,0,0-1.112,0l-.72.72a.688.688,0,0,1-.837.106,8.115,8.115,0,0,0-2.1-.873.688.688,0,0,1-.516-.667V2.163a.787.787,0,0,0-.786-.786H11.013a.787.787,0,0,0-.786.786V3.18a.688.688,0,0,1-.516.667,8.115,8.115,0,0,0-2.1.873.689.689,0,0,1-.837-.106l-.72-.72a.786.786,0,0,0-1.112,0L3.894,4.937a.786.786,0,0,0,0,1.112l.72.72a.689.689,0,0,1,.106.837,8.114,8.114,0,0,0-.873,2.1.688.688,0,0,1-.667.516H2.163a.787.787,0,0,0-.786.786v1.475a.787.787,0,0,0,.786.786H3.18a.688.688,0,0,1,.667.516,8.116,8.116,0,0,0,.873,2.1.689.689,0,0,1-.106.837l-.72.72a.786.786,0,0,0,0,1.112l1.043,1.043a.786.786,0,0,0,1.112,0l.72-.72a.692.692,0,0,1,.837-.106Z"/>
    <path id="Path_58" data-name="Path 58" d="M149.713,154.826a5.113,5.113,0,1,1,5.113-5.113A5.119,5.119,0,0,1,149.713,154.826Zm0-8.849a3.736,3.736,0,1,0,3.736,3.736A3.74,3.74,0,0,0,149.713,145.977Z" transform="translate(-137.963 -137.963)"/>
  </g>
</svg>
